<svg width="70" height="70" viewBox="0 0 70 70" fill="none" xmlns="http://www.w3.org/2000/svg">
<rect width="70" height="70" rx="35" fill="#419FD9"/>
<path fill-rule="evenodd" clip-rule="evenodd" d="M42.7811 52.3314C45.2274 53.4017 46.1448 51.1592 46.1448 51.1592L52.6175 18.6428C52.5665 16.4513 49.6105 17.7764 49.6105 17.7764L13.3737 31.9959C13.3737 31.9959 11.6408 32.6075 11.7937 33.6778C11.9466 34.7481 13.3227 35.2578 13.3227 35.2578L22.4456 38.3157C22.4456 38.3157 25.1978 47.3367 25.7584 49.0695C26.2681 50.7514 26.7268 50.8024 26.7268 50.8024C27.2364 51.0063 27.6951 50.6495 27.6951 50.6495L33.6072 45.2981L42.7811 52.3314ZM44.3607 24.4019C44.3607 24.4019 45.6348 23.6374 45.5839 24.4019C45.5839 24.4019 45.7877 24.5038 45.1252 25.2174C44.5136 25.829 30.0902 38.7743 28.1535 40.5072C28.0006 40.6091 27.8987 40.762 27.8987 40.9659L27.338 45.7567C27.2361 46.2663 26.5735 46.3173 26.4206 45.8586L24.0252 38.0098C23.9233 37.704 24.0252 37.3473 24.331 37.1434L44.3607 24.4019Z" fill="white"/>
</svg>
