<svg width="70" height="70" viewBox="0 0 70 70" fill="none" xmlns="http://www.w3.org/2000/svg">
<rect width="70" height="70" rx="35" fill="#1DA1F2"/>
<path d="M52.1538 27.4348C52.1538 27.8176 52.1538 28.2004 52.1538 28.5286C52.1538 39.8489 43.5132 52.9192 27.7632 52.9192C22.896 52.9192 18.4116 51.4973 14.5835 49.0911C15.2397 49.1458 15.9507 49.2004 16.6069 49.2004C20.5991 49.2004 24.3179 47.8333 27.271 45.5364C23.4976 45.4817 20.3257 42.9661 19.2866 39.5754C19.8335 39.6848 20.3257 39.7395 20.9272 39.7395C21.6929 39.7395 22.4585 39.6301 23.1694 39.4114C19.2319 38.6458 16.2788 35.2004 16.2788 31.0442C16.2788 30.9895 16.2788 30.9895 16.2788 30.9348C17.4272 31.5911 18.7397 31.9739 20.1616 32.0286C17.8647 30.4973 16.3335 27.8723 16.3335 24.8645C16.3335 23.2786 16.771 21.802 17.4819 20.5442C21.6929 25.7395 28.0366 29.1301 35.146 29.5129C34.9819 28.9114 34.9272 28.2004 34.9272 27.5442C34.9272 22.7864 38.7554 18.9583 43.5132 18.9583C45.9741 18.9583 48.2163 19.9973 49.7476 21.6379C51.7163 21.2551 53.521 20.5442 55.2163 19.5598C54.5601 21.5833 53.1929 23.2239 51.4429 24.3176C53.1929 24.0989 54.8335 23.6614 56.3647 22.9504C55.271 24.7004 53.8491 26.2317 52.1538 27.4348Z" fill="white"/>
</svg>
